<?xml version="1.0" encoding="utf-8"?>
<!-- Generator: Adobe Illustrator 22.1.0, SVG Export Plug-In . SVG Version: 6.00 Build 0)  -->
<svg version="1.1" id="Ebene_1" xmlns="http://www.w3.org/2000/svg" xmlns:xlink="http://www.w3.org/1999/xlink" x="0px" y="0px"
	 viewBox="0 0 693.302 93.039" style="enable-background:new 0 0 693.302 93.039;" xml:space="preserve">
<style type="text/css">
	.st0{fill:#FF0000;}
</style>
<g>
	<path d="M6.365,56.401h3.703h3.703v1.157v1.157c0,2.918,0.764,4.978,2.546,6.309c1.782,1.331,4.583,1.932,8.657,1.932h8.519h8.52
		c5.973,0,9.909-0.115,12.352-1.111c2.443-0.995,3.393-2.87,3.393-6.388v-0.185v-0.185c0-2.27-0.325-4.029-1.842-5.221
		s-4.227-1.816-8.995-1.816H34.653H22.384c-5.602,0-9.444-0.903-11.886-2.928s-3.483-5.174-3.483-9.665v-1.389v-1.389
		c0-3.842,1.088-6.829,4.629-8.855s9.537-3.091,19.352-3.091h6.111h6.111c8.982,0,14.098,1.296,16.969,3.426
		s3.496,5.093,3.496,8.427v1.249v1.249H59.98h-3.704v-0.231v-0.231c0-3.611-1.205-5.463-3.498-6.412
		c-2.293-0.949-5.674-0.995-10.026-0.995H35.81h-6.943c-5.696,0-9.168,0.278-11.217,1.227c-2.048,0.949-2.673,2.57-2.673,5.256v0.88
		v0.88c0,1.944,0.324,3.472,1.69,4.513s3.774,1.597,7.942,1.597h10.508h10.508c5.971,0,10.994,0.301,14.525,2.2
		s5.567,5.394,5.567,11.782v0.092v0.092c0,6.62-3.055,10.046-7.325,11.817s-9.755,1.887-14.615,1.887H36.46h-7.316
		c-5.881,0-11.575,0-15.8-1.771c-4.225-1.771-6.979-5.314-6.979-12.4v-1.434V56.401z"/>
	<path d="M76.527,25.474h3.703h3.703v3.75v3.75h0.094h0.094c1.157-2.87,3.356-4.93,6.146-6.272c2.79-1.342,6.17-1.967,9.688-1.967
		h7.545h7.545c5.651,0,11.115,0.903,15.166,3.843c4.051,2.94,6.689,7.917,6.689,16.065v4.165v4.165
		c0,7.639-1.689,12.756-5.427,15.962c-3.738,3.206-9.524,4.503-17.719,4.503h-7.593h-7.593c-4.214,0-7.269-0.532-9.481-1.678
		c-2.211-1.146-3.578-2.905-4.413-5.359h-0.09h-0.09v11.389v11.389h-3.982h-3.982V57.328V25.474z M128.938,44.735
		c0-4.585-0.741-7.965-2.883-10.199s-5.683-3.321-11.284-3.321h-7.917h-7.917c-5.232,0-8.843,1.366-11.146,3.75
		s-3.298,5.788-3.298,9.863v4.49v4.49c0,5.648,1.759,8.934,4.572,10.809c2.813,1.875,6.679,2.338,10.892,2.338h7.082h7.082
		c4.632,0,8.336-0.509,10.883-2.384c2.547-1.875,3.935-5.115,3.935-10.578v-4.63V44.735z"/>
	<path d="M237.855,25.475h3.703h3.703v3.427v3.427h0.094h0.094c1.481-3.057,3.725-4.955,6.282-6.089
		c2.557-1.134,5.427-1.503,8.159-1.503h3.751h3.751c7.453,0,12.406,1.203,15.495,3.853c3.089,2.65,4.316,6.747,4.316,12.536v2.824
		v2.824h-3.703h-3.703v-1.018v-1.018c0-5.835-0.602-9.215-2.974-11.136s-6.516-2.385-13.599-2.385h-2.454h-2.454
		c-4.212,0-7.337,1.343-9.409,3.45c-2.072,2.107-3.091,4.978-3.091,8.034v14.999v14.999h-3.98h-3.98V49.086V25.475z"/>
	<path d="M303.344,31.956h-5.186h-5.186v-3.241v-3.241h5.186h5.186v-5.602V14.27h3.981h3.981v5.602v5.602h15.791h15.791v3.241v3.241
		h-15.791h-15.791v11.76v11.76c0,4.398,0.764,7.269,2.616,9.04c1.852,1.771,4.792,2.443,9.144,2.443h1.249h1.249
		c5.28,0,8.337-0.556,10.075-2.35c1.738-1.794,2.155-4.827,2.155-9.78v-1.759v-1.759h3.241h3.241v2.593v2.593
		c0,4.722-0.231,8.957-2.616,12.013c-2.385,3.055-6.925,4.93-15.542,4.93h-2.175h-2.175c-7.454,0-12.06-1.806-14.803-4.572
		s-3.622-6.493-3.622-10.335V45.244V31.956z"/>
	<path d="M354.431,25.475h8.334h8.334v4.491v4.491h0.092h0.092c1.019-3.75,3.333-6.18,6.401-7.673
		c3.067-1.493,6.887-2.048,10.916-2.048c6.482,0,10.995,1.389,13.889,4.409s4.167,7.673,4.167,14.201c0,0.603-0.024,1.227-0.06,1.91
		s-0.083,1.423-0.129,2.256h-7.684H391.1c0-3.009-0.348-5.232-1.586-6.702s-3.368-2.188-6.933-2.188
		c-3.055,0-5.648,0.58-7.477,1.865s-2.895,3.277-2.895,6.1v13.055v13.055h-8.889h-8.889V49.086V25.475z"/>
	<path d="M413.227,56.124c0-6.435,2.222-9.838,6.597-11.633s10.904-1.98,19.516-1.98c4.861,0,8.634,0.07,11.621,0.58
		s5.185,1.459,6.896,3.216v-2.083v-2.083c0-2.315-0.347-3.889-1.563-4.884s-3.299-1.41-6.771-1.41h-5.23h-5.23
		c-2.592,0-4.259,0.115-5.301,0.647c-1.042,0.532-1.458,1.48-1.551,3.145h-8.612h-8.612c0-6.387,1.574-10.114,5.024-12.243
		c3.449-2.13,8.774-2.663,16.273-2.663h10.324h10.324c6.113,0,10.789,1.459,13.938,4.307s4.768,7.084,4.768,12.639v15.509v15.509
		h-8.426h-8.426v-2.685v-2.685c-2.454,2.547-4.144,4.075-6.332,4.966c-2.188,0.892-4.873,1.147-9.317,1.147h-6.065h-6.065
		c-5.417,0.046-9.861-0.533-12.951-2.512c-3.09-1.98-4.827-5.36-4.827-10.916v-1.944V56.124z M444.895,62.326
		c6.111,0,9.445-0.463,11.251-1.32c1.806-0.857,2.084-2.107,2.084-3.681c0-1.758-0.255-2.961-1.736-3.724
		c-1.481-0.764-4.19-1.088-9.097-1.088h-3.936h-3.936c-3.75,0-6.018,0.417-7.349,1.319s-1.724,2.291-1.724,4.236
		c0,1.527,0.602,2.591,2.072,3.274s3.808,0.984,7.279,0.984h2.547H444.895z"/>
	<path d="M484.61,44.826c0-6.017,0.695-11.04,4.202-14.559s9.828-5.533,21.079-5.533h2.637h2.637c3.659,0,7.364,0.509,10.292,1.944
		c2.928,1.435,5.081,3.796,5.635,7.5h0.093h0.092v-14.26V5.659h8.889h8.889v33.52v33.52h-8.333h-8.333v-4.353v-4.353h-0.092h-0.093
		c-0.974,2.917-2.571,5.278-5.267,6.909c-2.696,1.632-6.492,2.535-11.861,2.535h-2.592h-2.592c-11.251,0-17.571-2.013-21.079-5.532
		c-3.508-3.518-4.202-8.541-4.202-14.56v-4.26V44.826z M501.833,51.864c0,2.639,0.208,4.7,1.481,6.1
		c1.273,1.401,3.611,2.142,7.87,2.142h5.232h5.232c3.519,0,6.204-0.393,8.009-1.678c1.806-1.285,2.732-3.461,2.732-7.026v-2.316
		v-2.316c0-3.565-0.926-5.741-2.732-7.026c-1.806-1.285-4.491-1.679-8.009-1.679h-5.232h-5.232c-4.259,0-6.597,0.741-7.87,2.142
		c-1.273,1.401-1.481,3.461-1.481,6.1v2.778V51.864z"/>
	<path d="M558.919,56.124c0-6.435,2.222-9.838,6.597-11.633s10.902-1.98,19.513-1.98c4.862,0,8.635,0.07,11.622,0.58
		s5.186,1.459,6.899,3.216v-2.083v-2.083c0-2.315-0.347-3.889-1.563-4.884c-1.216-0.995-3.299-1.41-6.772-1.41h-5.232h-5.232
		c-2.593,0-4.26,0.115-5.302,0.647s-1.459,1.48-1.551,3.145h-8.61h-8.61c0-6.387,1.574-10.114,5.023-12.243
		s8.773-2.663,16.274-2.663h10.323h10.323c6.112,0,10.788,1.459,13.937,4.307s4.769,7.084,4.769,12.639v15.509v15.509h-8.427h-8.427
		v-2.685v-2.685c-2.454,2.547-4.144,4.075-6.332,4.966s-4.873,1.147-9.318,1.147h-6.063h-6.064
		c-5.418,0.046-9.862-0.533-12.953-2.512c-3.09-1.98-4.826-5.36-4.826-10.916v-1.944V56.124z M590.584,62.326
		c6.112,0,9.445-0.463,11.251-1.32c1.806-0.857,2.084-2.107,2.084-3.681c0-1.758-0.255-2.961-1.737-3.724s-4.19-1.088-9.096-1.088
		h-3.936h-3.937c-3.75,0-6.018,0.417-7.349,1.319s-1.725,2.291-1.725,4.236c0,1.527,0.602,2.591,2.071,3.274
		c1.47,0.683,3.807,0.984,7.28,0.984h2.547H590.584z"/>
	<path d="M632.714,25.475h8.334h8.334v4.491v4.491h0.093h0.092c1.019-3.75,3.333-6.18,6.401-7.673s6.887-2.048,10.915-2.048
		c6.482,0,10.996,1.389,13.889,4.409s4.167,7.673,4.167,14.201c0,0.603-0.024,1.227-0.06,1.91c-0.036,0.683-0.083,1.423-0.129,2.256
		h-7.684h-7.684c0-3.009-0.347-5.232-1.586-6.702c-1.239-1.47-3.369-2.188-6.934-2.188c-3.055,0-5.648,0.58-7.477,1.865
		c-1.829,1.285-2.894,3.277-2.894,6.1v13.055v13.055h-8.889h-8.889V49.086V25.475z"/>
	<path class="st0" d="M194.977,31.113h-8.102h-8.102c-4.63,0-8.565,0.532-11.343,2.442s-4.399,5.197-4.399,10.706v4.723v4.723
		c0,5.509,1.621,8.796,4.399,10.705c2.778,1.91,6.714,2.442,11.343,2.442h8.102h8.102c4.629,0,8.563-0.532,11.341-2.442
		c2.777-1.909,4.397-5.196,4.397-10.705v-4.723v-4.723c0-5.509-1.62-8.796-4.397-10.706
		C203.541,31.645,199.606,31.113,194.977,31.113"/>
	<path class="st0" d="M194.157,17.847h-7.283h-7.283c-9.649,0-17.995,1.154-23.928,4.795c-5.934,3.641-9.455,9.767-9.455,19.712
		v6.63v6.63c0,9.946,3.521,16.073,9.455,19.713c5.933,3.641,14.279,4.795,23.928,4.795h7.283h7.283
		c9.648,0,17.995-1.154,23.929-4.795c5.934-3.641,9.457-9.768,9.457-19.713v-6.63v-6.63c0-9.945-3.522-16.072-9.457-19.712
		C212.152,19.001,203.805,17.847,194.157,17.847 M218.681,54.17c0,7.779-2.755,12.569-7.395,15.416
		c-4.641,2.846-11.168,3.748-18.714,3.748h-5.698h-5.698c-7.545,0-14.073-0.902-18.714-3.748c-4.641-2.846-7.396-7.637-7.396-15.416
		v-5.185v-5.185c0-7.777,2.755-12.568,7.396-15.415c4.641-2.847,11.169-3.75,18.714-3.75h5.698h5.698
		c7.546,0,14.073,0.903,18.714,3.75c4.641,2.847,7.395,7.638,7.395,15.415v5.185V54.17z"/>
</g>
</svg>
